<svg width="56" height="56" viewBox="0 0 56 56" fill="none" xmlns="http://www.w3.org/2000/svg">
  <path d="M16.5364 36.9203L25.4567 28L16.5364 19.0797C16.3672 18.9131 16.2328 18.7146 16.1407 18.4958C16.0487 18.277 16.0008 18.0421 16 17.8047C15.9992 17.5673 16.0454 17.3321 16.1359 17.1126C16.2264 16.8931 16.3595 16.6938 16.5275 16.526C16.6955 16.3582 16.895 16.2254 17.1146 16.1351C17.3341 16.0448 17.5694 15.9989 17.8068 16C18.0442 16.0011 18.2791 16.0492 18.4978 16.1415C18.7165 16.2338 18.9148 16.3686 19.0812 16.5379L27.9985 25.4582L36.9188 16.5379C37.0852 16.3686 37.2835 16.2338 37.5022 16.1415C37.7209 16.0492 37.9558 16.0011 38.1932 16C38.4306 15.9989 38.6658 16.0448 38.8854 16.1351C39.105 16.2254 39.3045 16.3582 39.4725 16.526C39.6404 16.6938 39.7735 16.8931 39.8641 17.1126C39.9546 17.3321 40.0008 17.5673 40 17.8047C39.9991 18.0421 39.9513 18.277 39.8593 18.4958C39.7672 18.7146 39.6327 18.9131 39.4636 19.0797L30.5403 28L39.4606 36.9203C39.6297 37.0869 39.7642 37.2854 39.8563 37.5042C39.9483 37.723 39.9961 37.9579 39.997 38.1953C39.9978 38.4327 39.9516 38.6679 39.8611 38.8874C39.7705 39.1069 39.6374 39.3062 39.4695 39.474C39.3015 39.6418 39.102 39.7746 38.8824 39.8649C38.6628 39.9552 38.4276 40.0011 38.1902 40C37.9528 39.9989 37.7179 39.9508 37.4992 39.8585C37.2805 39.7662 37.0822 39.6314 36.9158 39.4621L27.9985 30.5418L19.0782 39.4621C18.7402 39.7951 18.2843 39.981 17.8099 39.9793C17.3354 39.9777 16.8808 39.7886 16.5452 39.4533C16.2095 39.118 16.0199 38.6637 16.0177 38.1892C16.0155 37.7148 16.2008 37.2587 16.5334 36.9203H16.5364Z" fill="#02B4B6"/>
</svg>
